<svg width="42" height="24" xmlns="http://www.w3.org/2000/svg"><path d="M32.548 4.881a1215.27 1215.27 0 00-2.09 7.847c-.342 1.31-.679 2.62-1.074 3.914-.384 1.259-.855 2.602-1.541 3.745-.717 1.193-1.644 2.124-2.928 2.72a7.36 7.36 0 01-1.59.52c-.783.165-1.57.233-2.365.278-1.97.111-6.149.095-8.118.095l1.207-4.475c.914 0 1.828.003 2.741-.022.882-.024 1.852-.072 2.72-.277.952-.225 1.67-.61 2.298-1.385.572-.704.957-1.584 1.273-2.413.576-1.514 1.165-3.683 1.581-5.242.47-1.766.922-3.536 1.378-5.305zm8.136 0l-3.512 13.017h-6.508l3.512-13.017h6.508zM19.221 0h6.509c-.682 2.54-1.363 5.082-2.053 7.62-.48 1.77-.958 3.539-1.48 5.296-.227.766-.454 1.53-.753 2.274-.24.597-.507 1.13-1.003 1.576-.37.333-.773.54-1.243.688-.605.19-1.216.26-1.84.311-.898.074-1.797.093-2.697.107-2.07.033-5.827.029-7.896.02a162.22 162.22 0 01-2.231-.022 36.315 36.315 0 01-1.616-.056 9.016 9.016 0 01-1.071-.119 3.138 3.138 0 01-.7-.202c-.744-.325-1.123-.976-1.146-1.768-.012-.453.066-.885.157-1.324.129-.62.29-1.233.448-1.846.304-1.172.86-3.334 1.292-4.472.34-.891.787-1.779 1.638-2.343.476-.316.976-.484 1.527-.595.41-.082.82-.125 1.234-.156a36.95 36.95 0 012.085-.08 195.25 195.25 0 012.964-.024l2.466-.004h2.465l-.878 3.255c-1.465 0-2.93-.005-4.395.004-.428.003-.855 0-1.282.027-.152.01-.3.02-.447.071-.193.067-.288.189-.373.363-.124.254-.196.523-.275.792a141.527 141.527 0 00-.853 3.148c-.06.237-.12.474-.17.712a4.332 4.332 0 00-.085.505c-.017.187-.022.411.09.584.116.176.31.217.491.243.205.03.41.037.616.043.338.01.675.012 1.012.013.923.005 1.846.005 2.769 0 .425-.003.85-.006 1.275-.023.292-.012.581-.022.87-.092.219-.053.39-.136.538-.315.1-.122.166-.256.226-.399.148-.354.252-.72.36-1.087.417-1.405.791-2.82 1.174-4.235l1.144-4.244L19.22 0h6.509z" fill-rule="evenodd" fill-opacity=".85"/></svg>