<svg width="14" height="10" xmlns="http://www.w3.org/2000/svg" xmlns:xlink="http://www.w3.org/1999/xlink"><defs><path d="M4 9H2a1 1 0 00-1 1v2a1 1 0 001 1h2a1 1 0 001-1v-2a1 1 0 00-1-1zm5 0H7a1 1 0 00-1 1v2a1 1 0 001 1h2a1 1 0 001-1v-2a1 1 0 00-1-1zm5 0h-2a1 1 0 00-1 1v2a1 1 0 001 1h2a1 1 0 001-1v-2a1 1 0 00-1-1zM4 3H2a1 1 0 00-1 1v2a1 1 0 001 1h2a1 1 0 001-1V4a1 1 0 00-1-1zm5 0H7a1 1 0 00-1 1v2a1 1 0 001 1h2a1 1 0 001-1V4a1 1 0 00-1-1zm5 0h-2a1 1 0 00-1 1v2a1 1 0 001 1h2a1 1 0 001-1V4a1 1 0 00-1-1z" id="a"/></defs><g transform="translate(-1 -3)" fill="none" fill-rule="evenodd"><mask id="b" fill="#fff"><use xlink:href="#a"/></mask><g mask="url(#b)" fill="#3B3E40"><path d="M0 0h16v16H0z"/></g></g></svg>