<svg width="13" height="11" xmlns="http://www.w3.org/2000/svg" xmlns:xlink="http://www.w3.org/1999/xlink"><defs><path d="M12.695 2.895H3.25a.152.152 0 01-.152-.153v-.61c0-.083.068-.152.152-.152h9.445c.084 0 .153.069.153.153v.61a.152.152 0 01-.153.152zm.153 3.91v-.61a.152.152 0 00-.153-.152H3.25a.152.152 0 00-.152.152v.61c0 .084.068.152.152.152h9.445a.152.152 0 00.153-.152zm0 4.062v-.61a.152.152 0 00-.153-.152H3.25a.152.152 0 00-.152.153v.61c0 .083.068.152.152.152h9.445a.152.152 0 00.153-.153zM1.066 1.523a.914.914 0 100 1.829.914.914 0 000-1.829zm0 4.063a.914.914 0 100 1.828.914.914 0 000-1.828zm0 4.062a.914.914 0 100 1.829.914.914 0 000-1.829z" id="a"/></defs><g transform="translate(0 -1)" fill="none" fill-rule="evenodd"><mask id="b" fill="#fff"><use xlink:href="#a"/></mask><use fill="#000" fill-rule="nonzero" xlink:href="#a"/><g mask="url(#b)" fill="#3B3E40"><path d="M0 0h13v13H0z"/></g></g></svg>